<svg xmlns="http://www.w3.org/2000/svg" viewBox="0 0 64 64" fill="none">
  <!-- White daisy head only — 10 petals + golden center -->
  <g class="head">
    <g class="petals">
      <ellipse cx="32" cy="14" rx="6" ry="13" fill="#ffffff" />
      <ellipse cx="32" cy="14" rx="6" ry="13" fill="#ffffff" transform="rotate(36 32 32)" />
      <ellipse cx="32" cy="14" rx="6" ry="13" fill="#ffffff" transform="rotate(72 32 32)" />
      <ellipse cx="32" cy="14" rx="6" ry="13" fill="#ffffff" transform="rotate(108 32 32)" />
      <ellipse cx="32" cy="14" rx="6" ry="13" fill="#ffffff" transform="rotate(144 32 32)" />
      <ellipse cx="32" cy="14" rx="6" ry="13" fill="#ffffff" transform="rotate(180 32 32)" />
      <ellipse cx="32" cy="14" rx="6" ry="13" fill="#ffffff" transform="rotate(216 32 32)" />
      <ellipse cx="32" cy="14" rx="6" ry="13" fill="#ffffff" transform="rotate(252 32 32)" />
      <ellipse cx="32" cy="14" rx="6" ry="13" fill="#ffffff" transform="rotate(288 32 32)" />
      <ellipse cx="32" cy="14" rx="6" ry="13" fill="#ffffff" transform="rotate(324 32 32)" />
    </g>
    <circle class="center" cx="32" cy="32" r="9" fill="#ffce00" />
  </g>
</svg>
